<svg width="20" height="20" viewBox="0 0 20 20" fill="none" xmlns="http://www.w3.org/2000/svg">
<path d="M17.8125 13.6719C17.7411 13.7126 17.6624 13.7388 17.5808 13.7491C17.4993 13.7593 17.4165 13.7534 17.3373 13.7316C17.258 13.7098 17.1839 13.6727 17.119 13.6222C17.0542 13.5717 16.9999 13.509 16.9593 13.4375L15.475 10.8437C14.612 11.4272 13.66 11.8668 12.6562 12.1453L13.1148 14.8969C13.1283 14.9779 13.1258 15.0607 13.1073 15.1408C13.0887 15.2208 13.0546 15.2963 13.0069 15.3632C12.9592 15.43 12.8987 15.4868 12.829 15.5302C12.7593 15.5737 12.6818 15.6029 12.6007 15.6164C12.5674 15.6219 12.5337 15.6247 12.5 15.625C12.3521 15.6248 12.2091 15.5721 12.0964 15.4764C11.9837 15.3808 11.9085 15.2482 11.8843 15.1023L11.4336 12.4008C10.4829 12.5331 9.51856 12.5331 8.56793 12.4008L8.11715 15.1023C8.09289 15.2485 8.01753 15.3812 7.90449 15.4769C7.79145 15.5727 7.64809 15.6251 7.49996 15.625C7.46541 15.6248 7.43093 15.622 7.39684 15.6164C7.31582 15.6029 7.23825 15.5737 7.16856 15.5302C7.09887 15.4868 7.03843 15.43 6.99068 15.3632C6.94294 15.2963 6.90884 15.2208 6.89032 15.1408C6.87181 15.0607 6.86924 14.9779 6.88277 14.8969L7.34371 12.1453C6.3403 11.8659 5.38887 11.4256 4.52652 10.8414L3.04684 13.4375C2.96396 13.5819 2.8271 13.6875 2.66637 13.731C2.50565 13.7745 2.33422 13.7524 2.1898 13.6695C2.04539 13.5866 1.93981 13.4498 1.89629 13.2891C1.85278 13.1283 1.87489 12.9569 1.95777 12.8125L3.52027 10.0781C2.97144 9.60396 2.46677 9.08098 2.01246 8.51562C1.9558 8.45236 1.91263 8.37822 1.88558 8.29772C1.85853 8.21722 1.84817 8.13205 1.85513 8.04742C1.86209 7.96278 1.88622 7.88045 1.92606 7.80545C1.9659 7.73045 2.0206 7.66436 2.08683 7.61121C2.15306 7.55805 2.22943 7.51895 2.31127 7.4963C2.39311 7.47364 2.47872 7.4679 2.56285 7.47942C2.64699 7.49095 2.72789 7.5195 2.80063 7.56333C2.87336 7.60717 2.9364 7.66536 2.9859 7.73437C4.28277 9.33906 6.55152 11.25 9.99996 11.25C13.4484 11.25 15.7171 9.33671 17.014 7.73437C17.063 7.66395 17.1259 7.60435 17.1988 7.55928C17.2718 7.51422 17.3532 7.48464 17.4381 7.4724C17.5229 7.46016 17.6094 7.46552 17.6921 7.48814C17.7749 7.51076 17.852 7.55015 17.9189 7.60388C17.9857 7.6576 18.0408 7.72451 18.0806 7.80043C18.1205 7.87634 18.1443 7.95966 18.1506 8.04517C18.1569 8.13069 18.1455 8.21659 18.1172 8.29753C18.0888 8.37846 18.0442 8.4527 17.9859 8.51562C17.5316 9.08098 17.0269 9.60396 16.4781 10.0781L18.0406 12.8125C18.0825 12.8838 18.1099 12.9627 18.1211 13.0446C18.1324 13.1265 18.1272 13.2099 18.106 13.2898C18.0848 13.3698 18.0479 13.4447 17.9975 13.5103C17.9471 13.5758 17.8842 13.6308 17.8125 13.6719Z" fill="#020617"/>
</svg>
