<svg width="140" height="140" viewBox="0 0 140 140" fill="none" xmlns="http://www.w3.org/2000/svg">
<rect x="1" y="1" width="138" height="138" stroke="white" stroke-width="2"/>
<path d="M9.32 91V46.2H24.04C27.5813 46.2 30.824 46.776 33.768 47.928C36.712 49.0373 39.2293 50.5947 41.32 52.6C43.4533 54.5627 45.096 56.9093 46.248 59.64C47.4427 62.3707 48.04 65.3147 48.04 68.472C48.04 71.7573 47.4213 74.7867 46.184 77.56C44.9893 80.2907 43.3253 82.6587 41.192 84.664C39.1013 86.6693 36.648 88.2267 33.832 89.336C31.016 90.4453 28.008 91 24.808 91H9.32ZM15.144 88.184H22.184C25.6827 88.184 28.648 87.608 31.08 86.456C33.5547 85.2613 35.5813 83.7253 37.16 81.848C38.7387 79.9707 39.8907 77.88 40.616 75.576C41.3413 73.2293 41.704 70.904 41.704 68.6C41.704 66.04 41.2773 63.5867 40.424 61.24C39.5707 58.8507 38.312 56.76 36.648 54.968C35.0267 53.1333 33 51.6827 30.568 50.616C28.136 49.5493 25.3413 49.016 22.184 49.016H15.144V88.184ZM55.0575 46.2H60.4975V63.352H60.7535L61.4575 62.456C62.9082 60.8347 64.4442 59.7467 66.0655 59.192C67.7295 58.5947 69.3082 58.296 70.8015 58.296C71.9108 58.296 73.0628 58.4453 74.2575 58.744C75.4948 59.0427 76.6255 59.6187 77.6495 60.472C78.6735 61.3253 79.5268 62.52 80.2095 64.056C80.8922 65.5493 81.2335 67.4907 81.2335 69.88V91H75.7935V71.352C75.7935 70.072 75.7082 68.8347 75.5375 67.64C75.4095 66.4453 75.1108 65.4 74.6415 64.504C74.1722 63.608 73.4895 62.904 72.5935 62.392C71.7402 61.8373 70.5882 61.56 69.1375 61.56C67.0895 61.56 65.4895 61.9867 64.3375 62.84C63.1855 63.6507 62.3108 64.632 61.7135 65.784C61.1588 66.936 60.8175 68.1307 60.6895 69.368C60.5615 70.6053 60.4975 71.6507 60.4975 72.504V91H55.0575V46.2ZM103.271 58.296C106.386 58.296 108.796 58.744 110.503 59.64C112.21 60.4933 113.447 61.624 114.215 63.032C115.026 64.44 115.495 66.0613 115.623 67.896C115.751 69.7307 115.815 71.608 115.815 73.528V91H110.631V87.864C109.394 89.0587 107.815 90.0187 105.895 90.744C103.975 91.4267 102.055 91.768 100.135 91.768C98.3003 91.768 96.679 91.448 95.271 90.808C93.863 90.168 92.6897 89.336 91.751 88.312C90.8123 87.288 90.1083 86.136 89.639 84.856C89.1697 83.576 88.935 82.2747 88.935 80.952C88.935 79.5867 89.191 78.2213 89.703 76.856C90.215 75.4907 90.983 74.2747 92.007 73.208C93.031 72.0987 94.2897 71.2027 95.783 70.52C97.2763 69.8373 98.983 69.496 100.903 69.496C102.823 69.496 104.636 69.88 106.343 70.648C108.092 71.3733 109.522 72.4187 110.631 73.784V71.032C110.631 67.5333 110.098 64.9307 109.031 63.224C108.007 61.5173 106.108 60.664 103.335 60.664C102.14 60.664 101.095 60.8133 100.199 61.112C99.303 61.4107 98.4923 61.8373 97.767 62.392C97.0843 62.904 96.4443 63.5653 95.847 64.376C95.2497 65.144 94.6523 66.0187 94.055 67L90.727 63.672C91.3243 63.032 91.943 62.392 92.583 61.752C93.2657 61.112 94.0763 60.536 95.015 60.024C95.9963 59.512 97.1483 59.1067 98.471 58.808C99.7937 58.4667 101.394 58.296 103.271 58.296ZM110.631 78.328C110.418 77.816 110.098 77.2187 109.671 76.536C109.287 75.8533 108.775 75.192 108.135 74.552C107.495 73.912 106.727 73.3787 105.831 72.952C104.935 72.4827 103.868 72.248 102.631 72.248C101.394 72.248 100.263 72.504 99.239 73.016C98.215 73.4853 97.3403 74.1253 96.615 74.936C95.9323 75.704 95.399 76.6213 95.015 77.688C94.631 78.7547 94.439 79.864 94.439 81.016C94.439 82.3813 94.6737 83.576 95.143 84.6C95.655 85.5813 96.295 86.4347 97.063 87.16C97.831 87.8427 98.6843 88.3547 99.623 88.696C100.562 89.0373 101.458 89.208 102.311 89.208C103.122 89.208 103.932 89.0587 104.743 88.76C105.596 88.4613 106.386 88.056 107.111 87.544C107.879 86.9893 108.562 86.3493 109.159 85.624C109.756 84.8987 110.247 84.1093 110.631 83.256V78.328ZM126.058 88.248C126.058 87.3093 126.399 86.4987 127.082 85.816C127.764 85.1333 128.575 84.792 129.514 84.792C130.452 84.792 131.263 85.1333 131.946 85.816C132.628 86.4987 132.97 87.3093 132.97 88.248C132.97 89.1867 132.628 89.9973 131.946 90.68C131.263 91.3627 130.452 91.704 129.514 91.704C128.575 91.704 127.764 91.3627 127.082 90.68C126.399 89.9973 126.058 89.1867 126.058 88.248Z" fill="white"/>
</svg>
